<?xml version="1.0" encoding="UTF-8"?>
<svg id="_Слой_1" data-name="Слой_1" xmlns="http://www.w3.org/2000/svg" version="1.1" viewBox="260 110 480 480">
  <!-- Generator: Adobe Illustrator 29.3.1, SVG Export Plug-In . SVG Version: 2.1.0 Build 151)  -->
  <defs>
    <style>
      .st0 {
        fill: #373062;
      }
    </style>
  </defs>
  <path class="st0" d="M264.62,114l-1.1,472.07,471.86,1.1,1.1-472.07-471.86-1.1ZM623.52,264.01c-3,.89-12.14,2.67-12.14,2.67l-.42,181.07,52.56.12-.13,55.26-113.66-.26.55-234.09-96.14-.22-.61,133.89c-.02,10.33-1.55,20.51-4.41,30.39-8.45,28.59-28.57,52.65-55.41,65.92-8.55,4.32-17.69,7.3-27.13,9.22-10.19,1.92-20.82,2.5-31.6,1.42l.13-56.01c22.16,2.45,44.2-9.78,53.38-29.98,2.56-4.94,5.23-11.38,5.14-21.11-.07-7.69.02-135.33.02-135.33-22.96,5.08-39.78,23.82-50.38,42.73l-50.14-28.49c5.56-10.32,15.57-26.68,22.32-34.46,15.92-18.23,35.88-30.63,52.32-34.86,5.89-1.52,18.35-3.94,28.68-3.94,44.26,0,195.31-.33,195.31-.33,24.71.06,46.9-12.92,58.93-34.31l49.05,28.57c-15.5,30.67-43.1,53.22-76.22,62.13Z"/>
</svg>